<svg id="Capa_1" data-name="Capa 1" xmlns="http://www.w3.org/2000/svg" viewBox="0 0 45.53 45.53"><defs><style>.cls-1{fill:#ffa827;}</style></defs><path class="cls-1" d="M22.77,0A22.77,22.77,0,1,0,45.53,22.77,22.76,22.76,0,0,0,22.77,0Zm0,6.81a7.53,7.53,0,1,1-7.53,7.53A7.53,7.53,0,0,1,22.77,6.81Zm0,32.77a16.71,16.71,0,0,1-10.88-4,3.24,3.24,0,0,1-1.13-2.44,7.6,7.6,0,0,1,7.64-7.59h8.76a7.58,7.58,0,0,1,7.62,7.59,3.19,3.19,0,0,1-1.13,2.44A16.71,16.71,0,0,1,22.76,39.58Z" transform="translate(0 0)"/></svg>